<svg width="147" height="16" viewBox="0 0 147 16" fill="none" xmlns="http://www.w3.org/2000/svg">
<path d="M0 7.92799L8.12962 4.64155L8.12968 11.2151L0 7.92799Z" fill="#FF7E2B"/>
<path d="M23.6991 7.92682L31.0007 4.44689L31.1193 11.2626L23.6991 7.92682Z" fill="#D1021F"/>
<path d="M39.299 7.92785L30.9401 4.44735L31.1179 11.2633L39.299 7.92785Z" fill="#D1021F"/>
<path d="M14.9326 7.87917L26.1403 2.56196L19.6789 0L13.1894 2.56196L13.1911 13.293L19.6789 16L26.4364 13.148L14.9326 7.87917Z" fill="#1B80C7"/>
<path d="M55.5054 14.0426H51.9854L49.7046 9.64534L48.7812 10.196V14.0426H45.648V2.54207H48.7812V7.53717C48.9127 7.28545 49.0627 7.03373 49.231 6.78201C49.4047 6.53029 49.573 6.29167 49.7361 6.06617L52.1591 2.54207H55.5685L51.9302 7.6945L55.5054 14.0426Z" fill="#1B80C7"/>
<path d="M67.5568 8.27661C67.5568 9.16288 67.4489 9.97048 67.2332 10.6994C67.0227 11.4231 66.6913 12.0472 66.2388 12.5716C65.7863 13.096 65.2049 13.4998 64.4946 13.783C63.7843 14.061 62.9346 14.1999 61.9454 14.1999C60.9773 14.1999 60.1381 14.061 59.4278 13.783C58.7228 13.4998 58.1414 13.0986 57.6836 12.5795C57.2259 12.0551 56.8865 11.4284 56.6655 10.6994C56.4445 9.97048 56.334 9.15763 56.334 8.26087C56.334 7.06519 56.5314 6.02684 56.926 5.14582C57.3258 4.25955 57.9414 3.57518 58.7727 3.09271C59.6041 2.605 60.6669 2.36114 61.9612 2.36114C63.2766 2.36114 64.3447 2.605 65.1654 3.09271C65.9915 3.58042 66.5966 4.26741 66.9807 5.15368C67.3647 6.03995 67.5568 7.08093 67.5568 8.27661ZM59.6172 8.27661C59.6172 8.96884 59.6961 9.56406 59.854 10.0623C60.0118 10.5605 60.2617 10.9433 60.6037 11.2107C60.9457 11.4782 61.393 11.6119 61.9454 11.6119C62.5189 11.6119 62.974 11.4782 63.3108 11.2107C63.6528 10.9433 63.8974 10.5605 64.0448 10.0623C64.1973 9.56406 64.2736 8.96884 64.2736 8.27661C64.2736 7.23825 64.1 6.41754 63.7527 5.81445C63.4055 5.21137 62.8083 4.90983 61.9612 4.90983C61.3982 4.90983 60.9431 5.04618 60.5959 5.31887C60.2539 5.59157 60.0039 5.97964 59.8461 6.48309C59.6935 6.98653 59.6172 7.58437 59.6172 8.27661Z" fill="#1B80C7"/>
<path d="M79.4346 8.04848C79.4346 9.38575 79.1847 10.4975 78.6848 11.3838C78.185 12.2701 77.48 12.9361 76.5697 13.3818C75.6647 13.8223 74.5993 14.0426 73.3734 14.0426H69.6403V2.54207H73.6338C74.8755 2.54207 75.9278 2.75446 76.7907 3.17924C77.6536 3.60402 78.3086 4.22546 78.7559 5.04355C79.2083 5.86165 79.4346 6.86329 79.4346 8.04848ZM76.1988 8.15861C76.1988 7.46113 76.1041 6.88427 75.9147 6.42802C75.7305 5.96653 75.4516 5.62304 75.0781 5.39754C74.7045 5.16679 74.2336 5.05142 73.6654 5.05142H72.7578V11.4939H73.4523C74.3994 11.4939 75.0939 11.2212 75.5358 10.6758C75.9778 10.1252 76.1988 9.28611 76.1988 8.15861Z" fill="#1B80C7"/>
<path d="M88.3607 14.0426H81.5102V2.54207H88.3607V5.03569H84.6277V6.84494H88.0845V9.33856H84.6277V11.5097H88.3607V14.0426Z" fill="#1B80C7"/>
<path d="M90.3811 14.0426V2.54207H93.5143V14.0426H90.3811Z" fill="#1B80C7"/>
<path d="M107.002 14.0426H102.914L98.6995 5.94031H98.6285C98.6548 6.18679 98.6785 6.48309 98.6995 6.82921C98.7206 7.17532 98.739 7.52931 98.7548 7.89116C98.7705 8.24776 98.7784 8.57028 98.7784 8.85871V14.0426H96.0162V2.54207H100.089L104.287 10.5342H104.335C104.319 10.2825 104.303 9.99146 104.287 9.66107C104.271 9.32545 104.256 8.98719 104.24 8.64632C104.229 8.30545 104.224 8.00391 104.224 7.7417V2.54207H107.002V14.0426Z" fill="#1B80C7"/>
<path d="M115.226 14.0426H111.138L107.002 5.98749C107.002 5.98749 107.002 6.4811 107.002 6.83141C107.023 7.17753 106.986 7.52898 107.002 7.89083C107.018 8.24743 107.002 8.57028 107.002 8.85871L107.002 14.0426H104.24V2.54207H108.312L112.511 10.5342H112.558C112.543 10.2825 112.527 9.99146 112.511 9.66107C112.495 9.32545 112.479 8.98719 112.464 8.64632C112.453 8.30545 112.448 8.00391 112.448 7.7417V2.54207H115.226V14.0426Z" fill="#FF7E2B"/>
<path d="M128.516 8.27661C128.516 9.16288 128.409 9.97048 128.193 10.6994C127.982 11.4231 127.651 12.0472 127.198 12.5716C126.746 13.096 126.165 13.4998 125.454 13.783C124.744 14.061 123.894 14.1999 122.905 14.1999C121.937 14.1999 121.098 14.061 120.387 13.783C119.682 13.4998 119.101 13.0986 118.643 12.5795C118.185 12.0551 117.846 11.4284 117.625 10.6994C117.404 9.97048 117.294 9.15763 117.294 8.26087C117.294 7.06519 117.491 6.02684 117.886 5.14582C118.285 4.25955 118.901 3.57518 119.732 3.09271C120.564 2.605 121.626 2.36114 122.921 2.36114C124.236 2.36114 125.304 2.605 126.125 3.09271C126.951 3.58042 127.556 4.26741 127.94 5.15368C128.324 6.03995 128.516 7.08093 128.516 8.27661ZM120.577 8.27661C120.577 8.96884 120.656 9.56406 120.814 10.0623C120.971 10.5605 121.221 10.9433 121.563 11.2107C121.905 11.4782 122.353 11.6119 122.905 11.6119C123.479 11.6119 123.934 11.4782 124.27 11.2107C124.612 10.9433 124.857 10.5605 125.004 10.0623C125.157 9.56406 125.233 8.96884 125.233 8.27661C125.233 7.23825 125.06 6.41754 124.712 5.81445C124.365 5.21137 123.768 4.90983 122.921 4.90983C122.358 4.90983 121.903 5.04618 121.555 5.31887C121.213 5.59157 120.964 5.97964 120.806 6.48309C120.653 6.98653 120.577 7.58437 120.577 8.27661Z" fill="#FF7E2B"/>
<path d="M135.69 14.0426H132.573V5.08289H129.755V2.54207H138.5V5.08289H135.69V14.0426Z" fill="#FF7E2B"/>
<path d="M147 14.0426H140.15V2.54207H147V5.03569H143.267V6.84494H146.724V9.33856H143.267V11.5097H147V14.0426Z" fill="#FF7E2B"/>
</svg>
